<svg version="1.1" id="Layer_1" xmlns="http://www.w3.org/2000/svg" xmlns:xlink="http://www.w3.org/1999/xlink" x="0px" y="0px"
	 width="100%" viewBox="0 0 1024 672" enable-background="new 0 0 1024 672" xml:space="preserve">
<path fill="#000000" opacity="1.000000" stroke="none" 
	d="
M232.619324,415.378082 
	C215.250961,396.725311 197.264114,379.081726 182.679810,358.458740 
	C140.291183,298.519012 174.345734,217.960266 246.797791,207.187759 
	C256.646118,205.723450 266.747101,205.927734 276.658020,207.767441 
	C283.818024,209.096512 286.442841,211.977371 287.303284,219.405136 
	C287.736145,223.141876 290.043976,224.422287 293.367004,224.741669 
	C303.893127,225.753296 306.779999,229.746185 305.287323,240.107697 
	C304.767731,243.714447 305.925140,247.295700 304.815125,251.223755 
	C303.766846,254.933395 309.024780,259.238190 313.098694,258.519745 
	C317.350189,257.769989 320.532776,258.710358 323.386719,261.830627 
	C325.794250,264.462860 328.749237,264.231598 331.610168,262.613831 
	C337.261292,259.418243 342.133026,260.646423 346.557770,264.984924 
	C347.150543,265.566132 347.732819,266.319366 348.465240,266.572418 
	C358.931885,270.188873 359.757568,279.624146 361.291504,288.332336 
	C366.472107,317.742615 357.082581,343.128357 339.172485,366.013519 
	C326.010742,382.831360 310.743469,397.758484 296.421967,413.535797 
	C288.256744,422.531006 280.344482,431.755920 272.325958,440.884125 
	C266.713989,447.272644 261.299774,447.360840 255.503754,440.963440 
	C247.900406,432.571198 240.401230,424.084564 232.619324,415.378082 
M349.848145,282.756348 
	C349.464325,281.836670 349.197723,280.844055 348.678162,280.008820 
	C344.381805,273.102020 338.389435,270.884125 330.850433,273.499115 
	C326.119751,275.140076 321.936584,273.943604 318.165497,271.116547 
	C315.807465,269.348785 313.403015,268.474945 310.422272,268.290070 
	C298.420197,267.545776 289.268646,251.511581 294.466827,240.595963 
	C296.565094,236.189850 295.965179,235.031387 291.232788,234.389297 
	C284.066406,233.416962 279.091064,229.360764 277.199249,222.606323 
	C276.176056,218.953186 274.328766,217.871811 271.160217,217.245544 
	C257.485748,214.542664 244.140793,216.596298 231.347198,221.137497 
	C177.649765,240.197998 157.330444,303.974304 189.723099,350.944183 
	C201.593689,368.156738 215.964233,383.224854 230.177979,398.446930 
	C239.836014,408.790070 249.192184,419.415436 258.664001,429.931976 
	C263.706085,435.530334 264.635345,435.488708 269.290894,429.791168 
	C272.660187,425.667816 276.173920,421.661377 279.661865,417.636322 
	C296.456207,398.255737 315.155487,380.581940 331.022583,360.371643 
	C348.891296,337.611877 357.782959,312.605347 349.848145,282.756348 
z"/>
<path fill="#000000" opacity="1.000000" stroke="none" 
	d="
M391.731537,340.998505 
	C391.722015,319.339752 391.700317,298.180634 391.712006,277.021484 
	C391.716492,268.924408 393.466248,267.061859 401.547333,266.561096 
	C415.012909,265.726654 428.542694,264.673553 441.820190,267.867218 
	C459.015839,272.003326 467.070801,288.314941 459.498993,302.705627 
	C457.476196,306.550018 453.900513,308.766846 451.032501,311.618347 
	C451.114990,313.029907 452.232910,313.297638 453.069122,313.698456 
	C462.947784,318.433746 467.347992,326.508453 466.597565,337.154510 
	C465.775177,348.820892 459.300903,356.535614 448.352509,360.393524 
	C442.829559,362.339661 437.073334,363.290253 431.187988,363.281586 
	C421.524750,363.267334 411.861267,363.295410 402.198395,363.231262 
	C393.768311,363.175293 391.821503,361.227753 391.757965,352.993927 
	C391.728394,349.162170 391.739838,345.330048 391.731537,340.998505 
M414.315643,343.211609 
	C422.276794,346.031677 430.220917,345.158966 437.896851,342.423248 
	C442.701294,340.710907 444.363556,336.549408 443.739075,331.523041 
	C443.131531,326.633179 439.814758,324.420410 435.491882,323.422882 
	C429.619324,322.067719 423.620911,322.410034 417.651489,322.417755 
	C415.152740,322.420990 414.028717,323.542023 414.056030,326.039124 
	C414.115814,331.509796 414.099609,336.981293 414.315643,343.211609 
M424.371948,304.775238 
	C426.691437,304.620514 429.076050,304.756256 431.317627,304.253876 
	C436.918213,302.998535 439.880219,299.140656 439.598663,293.957611 
	C439.340118,289.198792 435.925842,286.022156 430.183136,285.363464 
	C428.203186,285.136322 426.189484,285.122864 424.192291,285.139618 
	C412.292450,285.239380 414.233856,284.241821 414.056427,295.327545 
	C413.872467,306.820465 414.156128,304.520081 424.371948,304.775238 
z"/>
<path fill="#000000" opacity="1.000000" stroke="none" 
	d="
M775.252197,373.475708 
	C783.274902,369.587830 786.202271,361.995605 782.852966,354.383270 
	C775.208008,337.007507 767.479736,319.668427 759.856995,302.282959 
	C757.545349,297.010681 758.398193,295.790833 764.149048,295.690002 
	C783.312744,295.354004 780.400269,296.139160 786.045532,309.785980 
	C789.213745,317.444580 792.310913,325.132568 795.995239,334.168823 
	C800.222046,323.179840 803.970276,313.480560 807.682983,303.767670 
	C810.373718,296.728424 811.863159,295.688507 819.537048,295.674683 
	C833.509338,295.649506 833.734253,295.977783 828.445190,308.796112 
	C820.252441,328.651825 812.071411,348.512390 803.849243,368.355896 
	C801.738708,373.449463 799.178833,378.303772 795.686340,382.620117 
	C788.993347,390.891907 776.776184,394.394073 766.729004,390.936676 
	C763.671387,389.884460 761.927734,388.050934 762.509094,384.592499 
	C762.729553,383.280792 762.726135,381.927429 762.996033,380.628632 
	C764.439636,373.682037 765.373230,373.018127 772.378845,373.648254 
	C773.200684,373.722168 774.040344,373.599030 775.252197,373.475708 
z"/>
<path fill="#000000" opacity="1.000000" stroke="none" 
	d="
M663.265564,364.260193 
	C645.367676,361.569092 634.247314,351.244232 631.605774,335.273834 
	C628.450500,316.197540 639.517029,299.623444 658.374207,295.183228 
	C680.576416,289.955292 699.980652,302.478149 703.476990,324.291077 
	C706.744324,344.675171 691.523560,363.269714 670.718262,364.269714 
	C668.393005,364.381470 666.057556,364.281616 663.265564,364.260193 
M679.476501,339.859222 
	C680.859619,337.928955 681.600952,335.716248 682.189026,333.458649 
	C684.327393,325.249786 680.151367,316.129059 673.072388,313.462402 
	C665.976929,310.789520 657.846497,313.622986 654.494202,319.936737 
	C650.332947,327.774323 652.113647,338.455750 658.373474,343.206329 
	C664.503845,347.858673 672.664124,346.763550 679.476501,339.859222 
z"/>
<path fill="#000000" opacity="1.000000" stroke="none" 
	d="
M594.138672,346.903381 
	C599.059143,347.036133 603.226074,345.863190 606.677795,343.038147 
	C609.848022,340.443604 612.597351,340.702484 615.534241,343.212158 
	C616.922302,344.398285 618.534424,345.326447 619.894897,346.539856 
	C623.415649,349.679840 623.471985,352.585815 620.109741,355.867371 
	C615.111450,360.745697 608.691895,362.555420 602.125610,363.864410 
	C582.606506,367.755554 565.192078,358.435608 559.564148,341.197144 
	C554.463074,325.572479 559.990601,308.576782 573.090820,299.605927 
	C584.880188,291.532776 603.093567,292.199066 614.281677,301.309296 
	C623.155884,308.535278 625.783386,318.461639 625.658081,329.374146 
	C625.609680,333.594177 623.472107,335.508698 618.987488,335.416046 
	C608.006226,335.189270 597.017334,335.310211 586.031677,335.341614 
	C584.075562,335.347229 582.048462,334.916748 580.181274,335.887207 
	C580.823303,342.483307 585.046204,345.902313 594.138672,346.903381 
M594.453491,321.677643 
	C596.443298,321.677338 598.434326,321.721649 600.422668,321.667694 
	C604.844299,321.547699 605.644714,320.081146 603.449402,316.211121 
	C601.231689,312.301575 595.778748,309.896759 591.026428,310.732330 
	C584.495422,311.880676 581.178833,315.048340 580.193909,321.280853 
	C584.602844,322.144836 589.059265,321.471497 594.453491,321.677643 
z"/>
<path fill="#000000" opacity="1.000000" stroke="none" 
	d="
M537.108154,284.094116 
	C537.098511,295.254974 537.095398,295.362061 547.679016,295.672424 
	C551.664185,295.789276 553.606628,297.319611 553.310852,301.384827 
	C553.250610,302.213135 553.311462,303.050079 553.311890,303.883026 
	C553.316772,312.817535 552.866882,313.274567 544.061462,313.285492 
	C537.113586,313.294098 537.104431,313.294098 537.074646,320.023468 
	C537.048096,326.020111 536.878723,332.022308 537.076599,338.011993 
	C537.289062,344.440948 539.794983,346.769745 545.885681,345.502655 
	C550.264526,344.591644 552.080566,346.176971 553.072815,350.003448 
	C555.083130,357.756042 554.502625,360.922943 549.980103,362.438171 
	C541.805481,365.177063 533.508240,365.181427 525.664307,361.361450 
	C518.152710,357.703278 516.019531,350.668030 515.795044,343.006744 
	C515.556152,334.850708 515.616455,326.679230 515.803711,318.520386 
	C515.888367,314.834625 515.016663,312.721039 510.832550,313.206757 
	C506.420135,313.718964 504.830505,311.291260 504.964325,307.227203 
	C505.024658,305.396393 504.964722,303.561401 505.034882,301.731171 
	C505.177185,298.020477 506.818481,295.554932 510.840515,295.865112 
	C514.998779,296.185822 515.800354,294.172943 515.813049,290.489960 
	C515.854553,278.469391 515.972534,278.469788 526.881165,275.652588 
	C536.558228,273.153442 537.037659,273.527069 537.108154,284.094116 
z"/>
<path fill="#000000" opacity="1.000000" stroke="none" 
	d="
M714.658081,362.841461 
	C711.794617,361.307404 711.732849,358.967102 711.733032,356.590942 
	C711.734619,338.798431 711.691711,321.005829 711.751465,303.213501 
	C711.771423,297.265198 713.298096,295.813110 719.096497,295.697937 
	C721.257324,295.654999 723.423584,295.775421 725.580688,295.676575 
	C729.696716,295.487946 733.141541,296.050873 732.301880,302.197723 
	C737.963196,296.412109 743.714233,293.297028 751.122620,294.739075 
	C755.007446,295.495239 756.952881,297.683990 756.251343,301.785492 
	C755.887634,303.911438 755.523438,306.037354 755.144287,308.160583 
	C754.343872,312.643127 752.527527,315.041046 747.115112,314.447693 
	C738.993774,313.557312 733.584534,318.808746 733.328308,327.249542 
	C733.040833,336.719879 733.218689,346.203735 733.142639,355.681335 
	C733.091858,362.017822 731.846313,363.271942 725.533569,363.286560 
	C722.048279,363.294617 718.562500,363.109802 714.658081,362.841461 
z"/>
<path fill="#000000" opacity="1.000000" stroke="none" 
	d="
M496.703400,297.639832 
	C497.830627,315.650726 497.207520,333.280243 497.298462,350.904114 
	C497.358368,362.511749 499.306976,363.550354 484.692902,363.306152 
	C477.058350,363.178589 476.101471,362.373901 476.145203,354.650391 
	C476.244965,337.021301 476.514648,319.392883 476.549835,301.763855 
	C476.558197,297.566589 478.140717,295.348877 482.398163,295.739655 
	C487.091461,296.170502 492.049225,294.238861 496.703400,297.639832 
z"/>
<path fill="#000000" opacity="1.000000" stroke="none" 
	d="
M498.797119,280.153015 
	C496.301910,285.970520 491.773529,288.181213 486.283844,287.983734 
	C481.485229,287.811157 477.935608,285.108032 475.968750,280.557373 
	C473.942322,275.868896 475.219757,271.763824 478.305878,268.123047 
	C481.204834,264.703094 486.999115,263.500275 491.642853,265.307648 
	C496.168549,267.069122 499.022736,270.298553 499.287262,275.341248 
	C499.364380,276.811096 499.083862,278.299744 498.797119,280.153015 
z"/>
<path fill="#000000" opacity="1.000000" stroke="none" 
	d="
M260.783386,268.258362 
	C273.143005,266.287384 282.562592,270.412354 289.111267,280.480835 
	C294.934875,289.434509 294.496735,298.964905 289.632202,308.028717 
	C284.815430,317.003601 272.259033,322.017090 261.038208,320.321289 
	C251.295502,318.848846 242.525589,309.976898 240.126572,299.166290 
	C238.046783,289.794220 242.815323,278.454132 251.363419,272.572845 
	C254.120926,270.675629 257.059204,269.112396 260.783386,268.258362 
M280.793427,285.817474 
	C275.799622,278.599823 267.816162,276.000275 260.299713,279.144409 
	C253.216324,282.107391 248.862640,289.367371 249.890503,296.137482 
	C251.021133,303.584503 255.322662,308.152771 262.408966,310.077759 
	C268.979279,311.862518 274.828094,309.829285 279.200043,304.977600 
	C284.117035,299.520996 284.682495,293.076721 280.793427,285.817474 
z"/>
<path fill="#000000" opacity="1.000000" stroke="none" 
	d="
M237.546753,327.076965 
	C246.858902,325.919342 253.078537,329.924927 257.079437,337.534332 
	C260.530792,344.098602 259.589050,350.372406 254.898239,356.109924 
	C249.866486,362.264496 242.082932,363.803589 233.007675,360.398438 
	C227.364395,358.280975 222.185669,350.439331 222.306076,344.193970 
	C222.452194,336.614288 227.219818,330.335876 234.731705,327.850983 
	C235.520477,327.590057 236.332748,327.400177 237.546753,327.076965 
M250.951660,343.288788 
	C251.592178,342.365753 251.288376,341.525574 250.289337,341.492737 
	C247.014755,341.385132 246.490158,340.166138 247.399063,337.016815 
	C248.199326,334.243927 245.510696,333.020721 243.324570,332.209320 
	C238.394211,330.379333 231.956116,333.246155 228.896988,338.463745 
	C228.020737,339.958252 230.215958,353.331818 231.582092,354.227600 
	C232.246460,354.663208 233.255692,354.589294 233.893326,355.046570 
	C237.531952,357.655670 241.542847,355.135925 245.235123,355.990631 
	C246.919861,356.380646 248.287659,356.694214 248.979279,354.949677 
	C249.582977,353.426910 249.712524,351.828186 248.350037,350.329071 
	C244.779617,346.400604 245.153275,345.330566 250.951660,343.288788 
z"/>
<path fill="#000000" opacity="1.000000" stroke="none" 
	d="
M205.657166,314.670502 
	C198.773254,310.928436 195.624512,305.689270 196.411224,299.739288 
	C197.159073,294.083221 201.492523,289.444397 206.557480,288.878113 
	C214.878250,287.947784 221.425140,291.183868 223.286057,297.437195 
	C224.673981,302.101135 225.982819,307.070557 222.000275,311.105682 
	C217.570419,315.594055 212.180328,317.180511 205.657166,314.670502 
M212.746201,311.322662 
	C214.601196,309.549591 217.946304,309.185699 218.450256,306.233002 
	C219.105469,302.394043 209.626175,294.382874 205.920700,295.395905 
	C204.900833,295.674744 204.201965,296.369110 203.767654,297.310120 
	C201.310242,302.634613 205.969299,310.630951 212.746201,311.322662 
z"/>
<path fill="#000000" opacity="1.000000" stroke="none" 
	d="
M211.368347,267.236572 
	C206.473663,254.293732 213.989883,242.258179 226.832108,241.826035 
	C236.940735,241.485870 244.541656,248.666397 244.624084,258.633911 
	C244.702072,268.066193 235.996475,276.501007 226.413040,275.942688 
	C220.220657,275.581909 214.549438,273.849976 211.368347,267.236572 
M239.695786,263.670807 
	C239.731171,261.352325 240.061417,258.993103 239.747482,256.722931 
	C238.742874,249.458176 231.902252,245.038666 223.732910,246.161621 
	C217.819519,246.974503 212.655090,253.760269 213.206680,259.992554 
	C213.606735,264.512756 223.799942,273.226013 228.218826,272.732544 
	C229.349152,272.606262 230.512711,272.229187 231.526184,271.706116 
	C234.810150,270.011200 237.881226,268.032562 239.695786,263.670807 
z"/>
<path fill="#000000" opacity="1.000000" stroke="none" 
	d="
M304.336853,324.043884 
	C301.571686,324.363861 301.169037,326.760162 299.712738,328.015503 
	C298.175903,329.340271 296.426239,329.914124 294.926483,328.036316 
	C293.394043,326.117615 295.025970,325.017914 296.316467,323.983124 
	C301.142395,320.113373 309.773438,320.275360 315.540222,324.305603 
	C319.682892,327.200745 321.419373,333.774170 319.151550,339.708618 
	C317.838715,343.144073 313.721741,344.485474 312.286865,348.084381 
	C311.582825,345.883453 312.982849,344.624390 313.907562,343.194733 
	C318.032623,336.817352 312.374268,324.983154 304.336853,324.043884 
z"/>
<path fill="#000000" opacity="1.000000" stroke="none" 
	d="
M195.562988,276.396973 
	C196.253876,273.676575 197.477814,271.940826 200.081757,271.599548 
	C201.662079,273.418945 198.418320,274.123779 199.546295,275.646027 
	C200.999222,277.499298 201.966248,274.421295 203.675095,275.418182 
	C204.713898,278.904327 202.786575,280.911438 199.553848,281.482544 
	C196.095261,282.093567 195.652603,279.371246 195.562988,276.396973 
z"/>
<path fill="#000000" opacity="1.000000" stroke="none" 
	d="
M207.173706,336.615845 
	C209.857468,337.136902 209.750885,334.152100 211.604507,333.669525 
	C212.358337,336.129120 211.250961,337.593719 209.229660,338.468201 
	C207.602051,339.172333 205.863937,339.149780 204.655579,337.686310 
	C202.984375,335.662262 202.266525,333.407532 204.142395,330.393433 
	C205.799820,332.414215 204.288528,335.508331 207.173706,336.615845 
z"/>
</svg>